<?xml version="1.0" encoding="UTF-8" standalone="no"?><!DOCTYPE svg PUBLIC "-//W3C//DTD SVG 1.1//EN" "http://www.w3.org/Graphics/SVG/1.1/DTD/svg11.dtd"><svg width="100%" height="100%" viewBox="0 0 16 16" version="1.1" xmlns="http://www.w3.org/2000/svg" xmlns:xlink="http://www.w3.org/1999/xlink" xml:space="preserve" xmlns:serif="http://www.serif.com/" style="fill-rule:evenodd;clip-rule:evenodd;stroke-linejoin:round;stroke-miterlimit:2;"><rect id="Artboard1" x="0" y="0" width="16" height="16" style="fill:none;"/><clipPath id="_clip1"><rect x="0" y="0" width="16" height="16"/></clipPath><g clip-path="url(#_clip1)"><g><path d="M8.017,3.474c0.728,-0.125 1.21,-0.054 1.446,0.214c-0.027,0.211 -0.77,5.3 -0.829,5.544c-0.111,0.498 -0.145,0.962 -0.604,1.238c-0.633,0.332 -1.586,0.552 -2.121,0.645c-0.163,0.028 -0.288,0.045 -0.352,0.049l-1.17,0.235c-0.54,0.13 -1.503,0.213 -2.09,-0c-0.625,-0.201 -0.349,-1.201 -0.328,-1.378l0.169,-0.952c0.022,-0.214 0.686,-0.647 1.484,-0.821l0.101,-0.019c0.905,-0.157 1.171,0.362 1.108,0.73l-0.053,0.371c0.405,-0.104 0.795,-0.203 1.168,-0.296l0.197,-1.047c-0.039,0.007 0.369,-2.141 0.386,-2.145c0.191,-1.052 0.303,-1.647 0.336,-1.785c0.052,-0.266 0.436,-0.461 1.153,-0.585l-0.001,0.002Zm0.172,5.27c0.014,-0.058 0.476,-2.821 0.632,-4.021c0.007,-0.051 0.066,-0.504 0.029,-0.649c-0.05,-0.193 -1.44,-0.039 -1.479,0.159c-0.065,0.057 -0.089,0.123 -0.124,0.258c-0.055,0.212 -0.083,0.447 -0.129,0.668c0,0 -0.203,1.47 -0.347,2.282l-0.369,1.938c-0.256,0.063 -1.863,0.397 -2.14,0.468c0.011,-0.083 0.112,-0.482 0.125,-0.567c0.043,-0.252 -0.139,-0.608 -0.758,-0.5l-0.07,0.013c-0.546,0.119 -1.001,0.415 -1.016,0.562l-0.116,0.652c-0.014,0.121 -0.203,0.806 0.225,0.943c0.402,0.146 1.061,0.089 1.431,0l0.801,-0.161c0.044,-0.003 1.626,-0.368 1.737,-0.387c0.367,-0.064 0.649,-0.126 1.083,-0.354c0.314,-0.189 0.409,-0.963 0.485,-1.304Z" style="fill:#fff;"/><path d="M4.154,11.701c-0.444,0.076 -1.285,0.169 -1.937,-0.066c-0.233,-0.076 -0.519,-0.277 -0.569,-0.803c-0.028,-0.294 0.028,-0.595 0.058,-0.758c-1.072,0.28 -1.618,0.426 -1.637,0.44c-0.024,0.035 -0.037,0.076 -0.039,0.118l-0.01,0.096l0.002,0.009c0.039,0.228 0.26,0.511 0.661,0.848c0.323,0.276 0.517,0.409 0.584,0.397c0.011,-0.002 0.02,-0.01 0.022,-0.021l-0.001,-0.009c0.062,0.001 0.169,-0.012 0.32,-0.038c-0.163,0.819 -0.284,1.343 -0.364,1.575l-0.008,0.053l-0.005,0.026c0.033,0.189 0.525,0.202 1.475,0.038c0.812,-0.14 1.236,-0.336 1.273,-0.589c0.084,-0.241 0.198,-0.69 0.343,-1.348c-0.046,0.01 -0.102,0.02 -0.168,0.032Z" style="fill:#fff;fill-rule:nonzero;"/><path d="M1.264,8.925c0.011,-0.001 0.015,-0.011 0.012,-0.027c0.113,-0.01 0.357,-0.046 0.732,-0.11c0.095,-0.118 0.247,-0.238 0.454,-0.36c0.322,-0.188 0.715,-0.338 1.105,-0.423c0.038,-0.008 0.076,-0.015 0.113,-0.022c0.633,-0.109 0.978,0.081 1.156,0.259c0.032,0.031 0.06,0.065 0.086,0.101c0.008,-0.044 0.015,-0.086 0.022,-0.13l0.937,-0.188l0.009,-0.047c0.001,-0.088 0.032,-0.317 0.185,-1.143c0.047,-0.256 0.098,-0.518 0.137,-0.718c0.02,-0.095 0.035,-0.172 0.047,-0.228c-0.316,0.075 -0.645,0.155 -0.987,0.24c0.145,-0.952 0.233,-1.554 0.264,-1.805c-0.24,-0.262 -0.724,-0.331 -1.453,-0.205c-0.717,0.124 -1.101,0.319 -1.152,0.585c-0.043,0.151 -0.175,0.849 -0.395,2.095c-1.629,0.407 -2.459,0.625 -2.488,0.653c-0.024,0.035 -0.038,0.076 -0.04,0.118l-0.008,0.054l0,0.052l0.001,0.008c0.04,0.228 0.26,0.508 0.66,0.839c0.335,0.28 0.536,0.414 0.603,0.402Z" style="fill:#fff;fill-rule:nonzero;"/><path d="M10.074,8.303c-0.033,-0.062 -0.383,-0.04 -1.049,0.067c-0.075,0.493 -0.131,0.844 -0.147,0.918c-0.014,0.062 -0.027,0.126 -0.04,0.188c-0.077,0.373 -0.156,0.757 -0.465,1.046c1.348,-0.329 2.135,-0.564 2.361,-0.706c0.156,-0.096 0.24,-0.205 0.253,-0.327l0,-0.051l-0.007,-0.042c-0.026,-0.15 -0.172,-0.351 -0.438,-0.603c-0.274,-0.256 -0.43,-0.419 -0.468,-0.49Z" style="fill:#fff;fill-rule:nonzero;"/><path d="M8.158,10.684l-0.006,0.004l-0.006,0.003c-0.608,0.32 -1.532,0.556 -2.194,0.67c-0.15,0.025 -0.28,0.043 -0.362,0.05l-0.092,0.019c-0.146,0.717 -0.25,1.185 -0.313,1.405c-0.013,0.016 -0.021,0.035 -0.025,0.055l-0.006,0.019c0.034,0.194 0.529,0.209 1.485,0.044c0.812,-0.14 1.239,-0.337 1.281,-0.59c0.101,-0.302 0.243,-0.907 0.427,-1.816c-0.059,0.051 -0.122,0.097 -0.189,0.137Z" style="fill:#fff;fill-rule:nonzero;"/><path d="M10.528,5.734c-0.273,-0.259 -0.427,-0.42 -0.461,-0.483c-0.028,-0.051 -0.221,-0.055 -0.578,-0.011c-0.09,0.617 -0.197,1.339 -0.295,2.002c0.835,-0.217 1.341,-0.379 1.518,-0.488c0.161,-0.096 0.245,-0.205 0.253,-0.327l0.012,-0.079c-0.025,-0.15 -0.175,-0.355 -0.449,-0.614Z" style="fill:#fff;fill-rule:nonzero;"/><path d="M11.871,10.181c0.494,0.115 0.776,0.376 0.847,0.783l0.003,0.02l0.003,0.055c0.002,0.043 0,0.087 -0.005,0.13c-0.013,0.125 -0.043,0.247 -0.088,0.364l-0.147,0.299c-0.178,0.263 -0.35,0.478 -0.518,0.643c-0.257,0.227 -0.502,0.362 -0.735,0.407c-0.169,0.029 -0.321,0.021 -0.456,-0.024c-0.331,-0.148 -0.526,-0.395 -0.586,-0.74l-0.002,-0.013c-0.007,-0.042 -0.013,-0.085 -0.015,-0.127c-0.006,-0.057 -0.007,-0.114 -0.002,-0.171c0.02,-0.206 0.094,-0.403 0.216,-0.57l0.416,-0.557l0.044,-0.063c0.22,-0.23 0.441,-0.366 0.661,-0.408c0.121,-0.021 0.242,-0.03 0.364,-0.028Zm-0.185,0.507c-0.078,-0.002 -0.156,0.004 -0.233,0.018c-0.141,0.027 -0.282,0.114 -0.423,0.261l-0.028,0.04l-0.267,0.356c-0.078,0.108 -0.125,0.234 -0.138,0.366c-0.003,0.036 -0.002,0.072 0.001,0.109c0.002,0.027 0.005,0.054 0.01,0.081l0.001,0.009c0.039,0.221 0.163,0.378 0.375,0.473c0.087,0.029 0.184,0.034 0.292,0.016c0.149,-0.029 0.306,-0.116 0.471,-0.261c0.107,-0.106 0.217,-0.243 0.331,-0.412l0.094,-0.191c0.029,-0.075 0.048,-0.153 0.056,-0.233c0.004,-0.027 0.005,-0.055 0.003,-0.083l-0.001,-0.035l-0.003,-0.013c-0.045,-0.26 -0.225,-0.427 -0.541,-0.501Zm0.32,-4.68c0.047,-0.177 0.267,-1.199 0.661,-3.067c0.096,-0.231 0.452,-0.4 1.068,-0.506c0.13,-0.022 1.328,-0.238 1.85,-0.12c0.331,0.074 1.114,0.451 -1.038,3.932c-0.994,1.608 -0.879,2.308 -1.632,2.769c-0.238,0.146 -0.643,0.235 -1.1,0.163c-0.565,-0.091 -0.376,-0.419 -0.254,-1.037c0.238,-1.18 0.387,-1.892 0.445,-2.134Zm0.672,-0.552c-0.037,0.155 -0.21,0.859 -0.363,1.615c-0.078,0.395 -0.381,1.361 -0.019,1.418c0.292,0.047 0.434,-0.071 0.586,-0.164c0.482,-0.295 0.735,-1.712 1.371,-2.741c1.378,-2.228 1.153,-2.57 0.941,-2.617c-0.334,-0.075 -1.326,0.188 -1.41,0.203c-0.393,0.067 -0.621,0.175 -0.683,0.323c-0.252,1.196 -0.393,1.85 -0.423,1.963Z" style="fill:#fff;"/></g></g></svg>